<svg xmlns="http://www.w3.org/2000/svg" width="720" height="400" viewBox="0 0 720 400">
<rect width="720" height="400" fill="#fafafa"/>
<text x="360" y="28" text-anchor="middle" font-family="system-ui,sans-serif" font-size="16" font-weight="600">Monotonicity (Spearman ρ, want ≤ −0.8)</text>
<line x1="56" y1="48.0" x2="696" y2="48.0" stroke="#e0e0e0"/>
<text x="48" y="52.0" text-anchor="end" font-family="system-ui,sans-serif" font-size="11" fill="#666">0.2</text>
<line x1="56" y1="94.7" x2="696" y2="94.7" stroke="#e0e0e0"/>
<text x="48" y="98.7" text-anchor="end" font-family="system-ui,sans-serif" font-size="11" fill="#666">0.0</text>
<line x1="56" y1="141.3" x2="696" y2="141.3" stroke="#e0e0e0"/>
<text x="48" y="145.3" text-anchor="end" font-family="system-ui,sans-serif" font-size="11" fill="#666">-0.2</text>
<line x1="56" y1="188.0" x2="696" y2="188.0" stroke="#e0e0e0"/>
<text x="48" y="192.0" text-anchor="end" font-family="system-ui,sans-serif" font-size="11" fill="#666">-0.4</text>
<line x1="56" y1="234.7" x2="696" y2="234.7" stroke="#e0e0e0"/>
<text x="48" y="238.7" text-anchor="end" font-family="system-ui,sans-serif" font-size="11" fill="#666">-0.6</text>
<line x1="56" y1="281.3" x2="696" y2="281.3" stroke="#e0e0e0"/>
<text x="48" y="285.3" text-anchor="end" font-family="system-ui,sans-serif" font-size="11" fill="#666">-0.8</text>
<line x1="56" y1="328.0" x2="696" y2="328.0" stroke="#e0e0e0"/>
<text x="48" y="332.0" text-anchor="end" font-family="system-ui,sans-serif" font-size="11" fill="#666">-1.0</text>
<line x1="56" y1="94.7" x2="696" y2="94.7" stroke="#999" stroke-dasharray="4"/>
<rect x="81.6" y="94.7" width="76.8" height="233.3" fill="#27ae60"/>
<text x="120.0" y="88.7" text-anchor="middle" font-family="system-ui,sans-serif" font-size="10">-1.00</text>
<text x="120.0" y="376.0" text-anchor="middle" font-family="system-ui,sans-serif" font-size="11">color</text>
<rect x="209.6" y="94.7" width="76.8" height="233.3" fill="#27ae60"/>
<text x="248.0" y="88.7" text-anchor="middle" font-family="system-ui,sans-serif" font-size="10">-1.00</text>
<text x="248.0" y="376.0" text-anchor="middle" font-family="system-ui,sans-serif" font-size="11">content</text>
<rect x="337.6" y="94.7" width="76.8" height="233.3" fill="#27ae60"/>
<text x="376.0" y="88.7" text-anchor="middle" font-family="system-ui,sans-serif" font-size="10">-1.00</text>
<text x="376.0" y="376.0" text-anchor="middle" font-family="system-ui,sans-serif" font-size="11">layout</text>
<rect x="465.6" y="94.7" width="76.8" height="233.3" fill="#27ae60"/>
<text x="504.0" y="88.7" text-anchor="middle" font-family="system-ui,sans-serif" font-size="10">-1.00</text>
<text x="504.0" y="376.0" text-anchor="middle" font-family="system-ui,sans-serif" font-size="11">typography</text>
<rect x="593.6" y="94.7" width="76.8" height="193.2" fill="#27ae60"/>
<text x="632.0" y="88.7" text-anchor="middle" font-family="system-ui,sans-serif" font-size="10">-0.83</text>
<text x="632.0" y="376.0" text-anchor="middle" font-family="system-ui,sans-serif" font-size="11">spacing</text>
</svg>